<svg xmlns="http://www.w3.org/2000/svg" width="314" height="232" viewBox="0 0 314 232" fill="none">
  <path d="M301.63 63.1324C317.25 78.7534 317.25 104.08 301.63 119.701C286.009 135.322 260.682 135.322 245.061 119.701C234.58 109.22 231.133 94.3701 234.716 81.0138L202.489 48.7866C190.773 37.0711 171.778 37.0712 160.062 48.7866C148.347 60.5022 148.347 79.4972 160.062 91.213L181.276 112.426C208.612 139.763 208.612 184.084 181.276 211.421C153.939 238.758 109.617 238.758 82.2807 211.421L50.4029 179.543C37.0466 183.127 22.1967 179.679 11.7157 169.198C-3.90524 153.577 -3.90524 128.251 11.7157 112.63C27.3367 97.0089 52.6633 97.0089 68.2843 112.63C78.7412 123.087 82.1965 137.893 78.6533 151.225L110.565 183.137C122.281 194.853 141.276 194.853 152.991 183.137C164.707 171.421 164.707 152.426 152.991 140.71L131.778 119.497C104.442 92.1605 104.442 47.8389 131.778 20.5023C159.115 -6.83406 203.436 -6.83414 230.773 20.5023L263.034 52.7634C276.367 49.2202 291.173 52.6755 301.63 63.1324Z" fill="#EE6C31"/>
</svg>
